HIERARCHY
ROOT Hips
{
	OFFSET 55.310501 45.591206 43.872097
	CHANNELS 6 Xposition Yposition Zposition Zrotation Xrotation Yrotation
	JOINT Chest
	{
		OFFSET -0.153500 1.163101 7.852402
		CHANNELS 6 Xposition Yposition Zposition Zrotation Xrotation Yrotation
		JOINT Chest2
		{
			OFFSET 0.000000 0.000000 3.343300
			CHANNELS 6 Xposition Yposition Zposition Zrotation Xrotation Yrotation
			JOINT Neck
			{
				OFFSET 0.000000 0.000000 7.785500
				CHANNELS 6 Xposition Yposition Zposition Zrotation Xrotation Yrotation
				JOINT Head
				{
					OFFSET 0.000000 0.000000 2.173901
					CHANNELS 6 Xposition Yposition Zposition Zrotation Xrotation Yrotation
					End Site
					{
						OFFSET 0.000000 0.000000 10.528198
					}
				}
			}
			JOINT LeftCollar
			{
				OFFSET 2.676300 -1.652401 4.938301
				CHANNELS 6 Xposition Yposition Zposition Zrotation Xrotation Yrotation
				JOINT LeftShoulder
				{
					OFFSET 4.299000 0.000000 0.000000
					CHANNELS 6 Xposition Yposition Zposition Zrotation Xrotation Yrotation
					JOINT LeftElbow
					{
						OFFSET 0.000000 0.000000 -10.245102
						CHANNELS 6 Xposition Yposition Zposition Zrotation Xrotation Yrotation
						JOINT LeftWrist
						{
							OFFSET 0.000000 0.000000 -12.703300
							CHANNELS 6 Xposition Yposition Zposition Zrotation Xrotation Yrotation
							End Site
							{
								OFFSET 0.000000 0.000000 -2.173901
							}
						}
					}
				}
			}
			JOINT RightCollar
			{
				OFFSET -2.534599 -1.686401 5.195000
				CHANNELS 6 Xposition Yposition Zposition Zrotation Xrotation Yrotation
				JOINT RightShoulder
				{
					OFFSET -4.144100 0.000000 0.000000
					CHANNELS 6 Xposition Yposition Zposition Zrotation Xrotation Yrotation
					JOINT RightElbow
					{
						OFFSET 0.000000 0.000000 -10.116501
						CHANNELS 6 Xposition Yposition Zposition Zrotation Xrotation Yrotation
						JOINT RightWrist
						{
							OFFSET 0.000000 0.000000 -12.937801
							CHANNELS 6 Xposition Yposition Zposition Zrotation Xrotation Yrotation
							End Site
							{
								OFFSET 0.000000 0.000000 -2.173901
							}
						}
					}
				}
			}
		}
	}
	JOINT LeftHip
	{
		OFFSET 2.175598 0.064499 -2.662899
		CHANNELS 6 Xposition Yposition Zposition Zrotation Xrotation Yrotation
		JOINT LeftKnee
		{
			OFFSET 0.000000 -0.000004 -18.585800
			CHANNELS 6 Xposition Yposition Zposition Zrotation Xrotation Yrotation
			JOINT LeftAnkle
			{
				OFFSET 0.000000 0.000000 -18.979500
				CHANNELS 6 Xposition Yposition Zposition Zrotation Xrotation Yrotation
				End Site
				{
					OFFSET 0.000000 -9.264000 0.000000
				}
			}
		}
	}
	JOINT RightHip
	{
		OFFSET -2.092400 -0.058102 -2.581200
		CHANNELS 6 Xposition Yposition Zposition Zrotation Xrotation Yrotation
		JOINT RightKnee
		{
			OFFSET 0.000000 -0.000004 -18.665001
			CHANNELS 6 Xposition Yposition Zposition Zrotation Xrotation Yrotation
			JOINT RightAnkle
			{
				OFFSET 0.000000 0.000000 -18.566601
				CHANNELS 6 Xposition Yposition Zposition Zrotation Xrotation Yrotation
				End Site
				{
					OFFSET 0.000000 -8.497601 0.000000
				}
			}
		}
	}
}
MOTION
Frames: 5
Frame Time: 0.041667
59.899002 41.283798 35.633190 382.976848 42.151136 28.429875 -0.153497 1.163106 7.852403 10.269079 23.476996 7.143247 -0.000005 0.000011 3.343301 -2.359899 -8.172165 -0.002677 -0.000002 0.000010 7.785500 -1.417906 -9.561700 33.690174 -0.000006 0.000001 2.173908 0.118585 -1.113628 -1.075996 2.676299 -1.652388 4.938305 6.361943 -2.273121 13.904219 4.298996 0.000001 -0.000013 -87.021821 -21.074467 -109.833895 -0.000009 -0.000002 -10.245098 232.332928 230.111259 204.476329 0.000003 0.000000 -12.703301 167.747342 191.968969 164.575020 -2.534598 -1.686392 5.194995 22.738171 22.061482 7.555917 -4.144101 -0.000011 -0.000005 51.369822 10.992073 46.766691 0.000001 0.000009 -10.116494 24.041199 -6.447910 -2.357631 0.000007 0.000001 -12.937794 -4.743429 -7.037316 -17.816128 2.175595 0.064495 -2.662891 -250.584286 -47.123575 103.066817 -0.000005 -0.000014 -18.585796 28.531763 -216.988102 -99.300172 -0.000007 0.000002 -18.979500 386.761483 -7.304138 6.654671 -2.092402 -0.058100 -2.581203 -112.965885 -20.218787 -53.231117 0.000002 0.000001 -18.665009 -709.200016 48.381440 29.088898 0.000005 -0.000006 -18.566608 750.640303 27.469976 12.460659
59.649296 41.293205 35.617893 382.966685 42.754293 28.543577 -0.153500 1.163105 7.852414 11.277193 23.781230 7.430553 -0.000002 0.000004 3.343302 -2.461810 -8.109541 -0.004529 -0.000000 0.000001 7.785499 -2.037937 -9.039533 34.295585 -0.000001 0.000000 2.173906 0.190855 -1.043386 -1.078954 2.676292 -1.652404 4.938299 5.802224 -2.198337 13.999997 4.299008 -0.000008 -0.000010 -87.992023 -21.190288 -108.370985 0.000009 0.000000 -10.245106 233.523403 231.996883 206.406869 -0.000003 0.000002 -12.703308 164.720284 190.693650 164.046076 -2.534601 -1.686405 5.195005 22.885990 22.052840 8.256454 -4.144100 -0.000013 -0.000001 52.005918 9.342505 49.224524 0.000005 0.000002 -10.116500 23.812507 -6.444442 -2.220027 0.000007 0.000003 -12.937798 -1.953973 -7.822186 -18.840049 2.175600 0.064496 -2.662897 -249.459737 -47.184183 104.366875 -0.000005 -0.000007 -18.585802 29.222934 -217.478920 -99.664645 -0.000005 0.000001 -18.979502 385.928801 -6.919905 6.229442 -2.092406 -0.058104 -2.581196 -114.447019 -18.952964 -54.727434 0.000010 -0.000002 -18.665012 -707.280241 50.303981 29.032105 0.000006 -0.000004 -18.566605 749.294374 25.881048 13.122875
59.392204 41.290600 35.607491 383.354968 43.286911 28.349322 -0.153499 1.163099 7.852407 12.035837 24.268272 7.714788 0.000016 0.000003 3.343303 -2.549877 -8.030019 -0.006344 -0.000002 0.000011 7.785501 -2.634662 -8.504418 34.845334 -0.000003 0.000007 2.173906 0.262759 -0.858480 -1.031558 2.676294 -1.652390 4.938304 5.240642 -2.134409 14.060073 4.298997 0.000002 -0.000004 -88.843583 -21.273615 -106.809221 -0.000011 -0.000003 -10.245102 235.572733 233.470728 209.129478 -0.000001 -0.000009 -12.703302 339.996927 158.646375 223.663984 -2.534597 -1.686390 5.195005 22.731290 22.281566 9.093878 -4.144110 0.000000 -0.000007 52.734415 7.655682 52.049173 -0.000002 -0.000000 -10.116505 26.742755 -6.710931 -1.709079 0.000012 0.000000 -12.937796 -2.412443 -8.416631 -19.592881 2.175600 0.064495 -2.662889 -248.761582 -47.236222 105.373918 -0.000003 -0.000005 -18.585812 29.866471 -217.887720 -100.021167 -0.000003 0.000006 -18.979498 385.174229 -6.514020 5.822964 -2.092398 -0.058102 -2.581195 -115.824982 -17.940542 -55.941640 -0.000006 -0.000005 -18.665005 -704.925629 52.409561 28.458888 0.000010 -0.000011 -18.566601 747.610267 24.238069 13.627727
59.125706 41.276508 35.602089 383.940479 43.571757 28.046881 -0.153502 1.163093 7.852409 12.913112 25.021213 7.837113 0.000006 0.000003 3.343303 -2.722035 -7.971925 -0.008969 -0.000001 0.000005 7.785492 -3.155565 -7.897021 35.341837 0.000005 0.000006 2.173912 0.320377 -0.695473 -0.959357 2.676295 -1.652395 4.938290 4.586533 -1.918058 14.165428 4.298995 -0.000003 -0.000010 -89.567815 -21.305935 -105.339562 -0.000004 0.000002 -10.245104 236.945929 235.277778 211.472069 0.000000 -0.000005 -12.703300 334.903928 155.026211 224.777960 -2.534597 -1.686396 5.194995 22.585798 22.494682 9.848964 -4.144109 0.000000 -0.000014 53.321986 6.142803 55.009596 -0.000005 0.000006 -10.116497 24.388473 -6.733840 -1.871286 -0.000002 0.000001 -12.937805 2.330692 -9.239861 -20.504083 2.175597 0.064498 -2.662895 -248.357836 -47.362458 105.976034 -0.000005 -0.000010 -18.585808 30.493588 -218.317598 -100.429503 -0.000006 -0.000005 -18.979502 384.412035 -6.036152 5.346179 -2.092404 -0.058107 -2.581193 -116.834416 -17.252860 -56.778038 0.000008 -0.000002 -18.665005 -702.005477 54.733612 27.180181 0.000001 -0.000007 -18.566608 745.615087 22.622601 13.882618
58.854107 41.256611 35.598694 384.315347 43.996537 27.820474 -0.153503 1.163109 7.852410 13.764729 25.571596 8.072257 0.000000 0.000004 3.343304 -2.904703 -7.956020 -0.009199 -0.000002 -0.000002 7.785505 -3.574619 -7.228939 35.781821 -0.000002 -0.000002 2.173902 0.401957 -0.525710 -0.902298 2.676291 -1.652398 4.938309 3.829244 -1.402948 14.527775 4.298996 -0.000001 -0.000007 -90.203385 -21.058380 -104.127928 -0.000002 -0.000001 -10.245098 238.590310 236.969315 214.176059 0.000015 0.000004 -12.703295 332.019238 153.633672 225.316480 -2.534611 -1.686399 5.195004 22.583541 22.898300 10.331765 -4.144103 0.000000 0.000003 53.659489 4.811068 58.308328 0.000002 0.000003 -10.116497 22.075651 -6.784008 -2.045933 0.000006 0.000004 -12.937799 6.889903 -9.822450 -20.584962 2.175599 0.064501 -2.662897 -247.732273 -47.217975 106.786196 -0.000010 -0.000003 -18.585812 30.990098 -218.669831 -100.870324 0.000000 0.000003 -18.979498 383.692078 -5.547731 4.927313 -2.092397 -0.058098 -2.581192 -117.738541 -16.612209 -57.801692 0.000006 -0.000004 -18.665009 -699.444812 56.806738 26.005694 0.000003 -0.000001 -18.566605 744.152334 21.211859 13.766198
